<svg xmlns="http://www.w3.org/2000/svg" viewBox="0 0 500 500"><path d="M466.89 316.2H303v-94.84h163.89zm-162.89-1h161.89v-92.84H304z" fill="#e0e0e0"/><path fill="#f0f0f0" d="M324.95 271.93h108.13v3.17H324.95zm0 11.82h115.58v3.46H324.95zm0 11.96h115.58v3.46H324.95zm0-40.95h37.79v8.23h-37.79z"/><path fill="#e0e0e0" d="M303.53 221.86h162.86v15.1H303.53z"/><path d="M453.86 234.7c-.21-.2 1.89-2.73 4.68-5.65s5.24-5.13 5.44-4.94-1.89 2.73-4.68 5.66-5.24 5.13-5.44 4.93z" fill="#fff"/><path d="M464 234.7c-.2.2-2.64-2-5.44-4.93s-4.89-5.46-4.68-5.66 2.64 2 5.44 4.94 4.87 5.45 4.68 5.65z" fill="#fff"/><path fill="#e6e6e6" d="M102.36 34.05h162.86v93.85H102.36z"/><path fill="#f0f0f0" d="M123.79 84.13h108.13v3.17H123.79zm0 11.82h115.58v3.46H123.79zm0 11.96h115.58v3.46H123.79zm0-40.95h37.79v8.23h-37.79z"/><path fill="#e0e0e0" d="M102.36 34.05h162.86v15.1H102.36z"/><path d="M252.14 46.82c-.21-.19 1.89-2.73 4.68-5.65s5.24-5.13 5.44-4.93-1.89 2.73-4.68 5.65-5.24 5.11-5.44 4.93z" fill="#fff"/><path d="M262.26 46.82c-.2.2-2.64-2-5.44-4.93s-4.89-5.45-4.68-5.65 2.64 2 5.44 4.93 4.89 5.46 4.68 5.65z" fill="#fff"/><path d="M203.54 208.39H39.68v-94.85h163.86zm-162.86-1h161.86v-92.85H40.68z" fill="#e0e0e0"/><path fill="#f0f0f0" d="M61.61 164.12h108.13v3.17H61.61zm0 11.82h115.58v3.46H61.61zm0 11.96h115.58v3.46H61.61zm0-40.95H99.4v8.23H61.61z"/><path fill="#e0e0e0" d="M40.18 114.04h162.86v15.1H40.18z"/><path fill="#e6e6e6" d="M200.35 230.12h192.3v172.16h-192.3z"/><path fill="#f0f0f0" d="M59.38 175.89h150.64V332.4H59.38z"/><path fill="#e0e0e0" d="M59.38 175.89h150.64v17.05H59.38z"/><path d="M71.82 184.24a3.16 3.16 0 11-3.16-3.3 3.24 3.24 0 013.16 3.3zm12.83 0a3.17 3.17 0 11-3.16-3.3 3.24 3.24 0 013.16 3.3zm12.83 0a3.17 3.17 0 11-3.16-3.3 3.24 3.24 0 013.16 3.3z" fill="#fff"/><path fill="#f0f0f0" d="M253.08 68.28h192.3v191.66h-192.3z"/><path fill="#e0e0e0" d="M253.08 68.28h192.3v22.45h-192.3z"/><path d="M269.46 79.28a4.17 4.17 0 11-4.17-4.35 4.27 4.27 0 014.17 4.35zm15.67-2.94a4.17 4.17 0 11-6-.14 4.25 4.25 0 016 .14zm18.11 2.94a4.17 4.17 0 11-4.17-4.35 4.27 4.27 0 014.17 4.35z" fill="#fff"/><path d="M403.84 453.13c0 .14-69.44.26-155.07.26s-155.1-.12-155.1-.26 69.43-.26 155.1-.26 155.07.13 155.07.26z" fill="#263238"/><path d="M336.18 330.71c-15.45-10.79-18.95-30.82-18.34-48.83.1-3-.23-6.18 1.2-8.81s4.77-4.44 7.46-3.18c2.23 1.05 3.2 3.65 4.45 5.8a17.56 17.56 0 007.05 6.73c1.91 1 4.28 1.6 6.17.56 2.6-1.43 2.9-5 2.88-8q0-8.37-.1-16.72a27.83 27.83 0 01.9-8.88c.93-2.84 3-5.47 5.83-6.27s6.36.85 7 3.77a28.8 28.8 0 01.09 3.72c.08 1.25.66 2.62 1.83 3s2.39-.49 3.29-1.37c3.08-3 5.18-6.91 7.13-10.77s3.86-7.83 6.66-11.12 6.67-5.9 11-6.15 8.84 2.41 9.92 6.61-1.37 8.49-4 11.9a66.87 66.87 0 01-13.89 13.25 5.44 5.44 0 00-2.33 2.49c-.65 2 1.24 4 3.21 4.63 2.23.74 4.65.51 7 .79s4.85 1.3 5.74 3.5c1.22 3.06-1.34 6.26-3.85 8.36a57.38 57.38 0 01-16.92 9.77c-2.2.8-4.51 1.51-6.29 3.05s-2.84 4.23-1.77 6.34 3.82 2.78 6.13 2.35 4.36-1.67 6.56-2.5c4.11-1.55 9.41-1.27 12 2.28a9.46 9.46 0 011 8.37 21.83 21.83 0 01-4.53 7.39A57.63 57.63 0 01364 330c-9.53 3.3-18.36 4.2-27.83.73" fill="#a927f9"/><path d="M396.2 226.66s-.09.1-.29.28l-.89.79c-.78.7-1.93 1.72-3.38 3.07a111.61 111.61 0 00-11.42 12.33c-2.23 2.77-4.54 5.91-7 9.32s-5 7.09-7.52 11a135.66 135.66 0 00-7.37 12.78c-1.16 2.29-2.18 4.68-3.23 7.12l-3.1 7.45a274.85 274.85 0 00-10.66 28.77 134 134 0 00-5 24.53 97.54 97.54 0 00-.28 16.89c.16 2 .31 3.53.45 4.57.06.5.1.9.14 1.19v.41a2.09 2.09 0 01-.09-.4c-.05-.29-.11-.68-.19-1.18-.18-1-.37-2.58-.55-4.58a92.93 92.93 0 01.1-16.94 131.81 131.81 0 014.89-24.64 268.42 268.42 0 0110.63-28.84l3.18-7.42c1.05-2.43 2.08-4.84 3.25-7.14a133.92 133.92 0 017.43-12.81c2.56-4 5.14-7.62 7.57-11s4.78-6.54 7-9.3a106.31 106.31 0 0111.57-12.24c1.48-1.33 2.66-2.33 3.46-3l.93-.75a2.18 2.18 0 01.37-.26z" fill="#263238"/><path d="M358 276a6.19 6.19 0 01-.29-1.27c-.16-.83-.34-2-.55-3.52-.43-3-.87-7.11-1.34-11.66s-1-8.67-1.44-11.64c-.23-1.48-.43-2.67-.57-3.5a5.4 5.4 0 01-.17-1.3 5.53 5.53 0 01.37 1.25c.22.82.47 2 .75 3.49.57 3 1.13 7.08 1.6 11.64s.87 8.56 1.18 11.67c.15 1.4.28 2.59.38 3.54a5.54 5.54 0 01.08 1.3zm38.48-7.18a8 8 0 01-1.48.18c-1 .09-2.42.21-4.18.41-3.52.38-8.36 1.08-13.67 2.08s-10.08 2.13-13.51 3c-1.71.44-3.09.84-4 1.11a7.3 7.3 0 01-1.5.36 8.71 8.71 0 011.44-.57c.94-.33 2.3-.79 4-1.28 3.41-1 8.18-2.19 13.51-3.21a136.16 136.16 0 0113.65-1.9c1.77-.15 3.2-.21 4.2-.23a7.69 7.69 0 011.54.05zm-55.18 49.9a2.08 2.08 0 01-.26-.47l-.66-1.39c-.57-1.21-1.34-3-2.26-5.19-1.86-4.4-4.23-10.56-6.75-17.4s-4.84-13-6.6-17.45c-.86-2.16-1.57-3.93-2.1-5.25l-.56-1.43a1.93 1.93 0 01-.16-.52 2.08 2.08 0 01.26.47l.66 1.39c.56 1.21 1.34 3 2.26 5.19 1.86 4.4 4.23 10.56 6.75 17.4s4.84 13 6.6 17.45c.86 2.16 1.57 3.93 2.09 5.25.23.57.42 1 .57 1.43a1.93 1.93 0 01.16.52z" fill="#263238"/><path d="M392.38 302.25a2.12 2.12 0 01-.51.21l-1.48.5-5.47 1.77c-4.62 1.5-11 3.64-18 6s-13.41 4.46-18.06 5.86c-2.32.71-4.21 1.25-5.52 1.61l-1.51.39a2.59 2.59 0 01-.54.11 2.12 2.12 0 01.51-.21l1.48-.5 5.47-1.77c4.62-1.5 11-3.64 18-6s13.4-4.46 18.05-5.86c2.33-.71 4.21-1.25 5.53-1.61l1.51-.39a2.59 2.59 0 01.54-.11z" fill="#263238"/><path d="M371.54 59.68l-5.15 1.84-2.21-6.73c-4.06-12.41-17-19-28.89-14.81s-18.22 17.8-14.16 30.21l2.21 6.73-5.17 1.85a8.22 8.22 0 00-4.82 10.28l14.33 43.79a7.73 7.73 0 009.86 5.11l53.37-19.09a8.26 8.26 0 004.87-10.38l-14.34-43.79a7.71 7.71 0 00-9.9-5.01zm-40.68 7a13.19 13.19 0 017.76-16.55 12.36 12.36 0 0115.83 8.11l2.2 6.73-23.59 8.44zm30 38.86l3.66 11.18a.91.91 0 01-.57 1.12l-5.13 1.83a.82.82 0 01-1-.54L354.13 108a10 10 0 01-9-7 10.51 10.51 0 016.19-13.18 9.85 9.85 0 0112.61 6.46 10.68 10.68 0 01-3.06 11.29z" fill="#a927f9"/><path d="M366.16 61.4c0 .14-9.55 3.73-21.43 8s-21.57 7.7-21.62 7.6 9.55-3.72 21.44-8 21.56-7.73 21.61-7.6zm11.34 1.84a1.75 1.75 0 01.11.27c.08.2.17.46.29.78l1.07 3 3.84 11.18c1.6 4.74 3.51 10.36 5.63 16.6 1 3.13 2.18 6.39 3.28 9.82a15 15 0 01.75 5.49 7.37 7.37 0 01-.81 2.77 7.64 7.64 0 01-1.89 2.23 18 18 0 01-5.08 2.59l-5.15 1.85-9.75 3.49-16.51 5.88-11.15 3.92-3 1-.8.26a.85.85 0 01-.27.07s.08 0 .25-.12l.78-.31 3-1.13 11.09-4.08 16.48-6 9.73-3.52 5.15-1.86a17.13 17.13 0 004.93-2.51 7.11 7.11 0 001.76-2.07 6.58 6.58 0 00.75-2.57 14.39 14.39 0 00-.72-5.29c-1.08-3.4-2.22-6.69-3.25-9.82-2.08-6.25-4-11.89-5.52-16.63s-2.8-8.55-3.68-11.23c-.42-1.31-.74-2.33-1-3.07l-.24-.8a.93.93 0 01-.07-.19z" fill="#263238"/><path d="M349.34 49.45s-.53-.26-1.51-.66a13.32 13.32 0 00-4.37-.88 15 15 0 00-6.46 1.22 14.4 14.4 0 00-6.11 5.11 13.52 13.52 0 00-2.35 7.59 23.39 23.39 0 001 6.55c.52 1.82 1.06 3.27 1.42 4.28a11.17 11.17 0 01.52 1.58 8.78 8.78 0 01-.71-1.51c-.41-1-1-2.42-1.58-4.25a22.74 22.74 0 01-1.15-6.65 13.71 13.71 0 012.4-7.88 14.63 14.63 0 016.35-5.26 14.88 14.88 0 016.65-1.14 12.59 12.59 0 014.43 1.05 8.26 8.26 0 011.08.6 1.49 1.49 0 01.39.25zm.46 39.13a3.45 3.45 0 01.5-.25 9.93 9.93 0 011.55-.55 11.09 11.09 0 012.59-.44 8.78 8.78 0 013.51.53c2.56.9 4.91 3.51 6.07 7a10.08 10.08 0 010 5.74 13 13 0 01-3.22 5.39l.06-.27c1.33 3.65 2.78 7.61 4.28 11.74l.09.25-.25.09-2.29.76-5 1.67-.25.08-.08-.25c-1.37-4.14-2.87-8-4-11.79l.22.17a10 10 0 01-5.36-2.11 12.1 12.1 0 01-3.35-4 9.14 9.14 0 01-1.06-4.5 10.86 10.86 0 014.19-8.26 6.36 6.36 0 011.73-1 19.27 19.27 0 00-1.64 1.09 10.63 10.63 0 00-3.09 4.39 9.46 9.46 0 00.31 8.07 11.74 11.74 0 003.27 3.84 9.52 9.52 0 005.11 2h.17l.05.15c1.1 3.72 2.61 7.61 4 11.77l-.33-.16 5-1.67 2.28-.77-.16.34c-1.49-4.13-2.93-8.1-4.25-11.75v-.15l.12-.12a12.74 12.74 0 003.16-5.17 9.67 9.67 0 000-5.49c-1.09-3.36-3.34-5.91-5.78-6.81a8.59 8.59 0 00-3.39-.57 11.46 11.46 0 00-2.56.35c-1.49.37-2.19.71-2.2.66z" fill="#263238"/><path d="M318.89 377.32l-99.89-.46A21.77 21.77 0 01197.35 355l1.06-250.41a21.75 21.75 0 0121.86-21.66l99.88.46a21.77 21.77 0 0121.66 21.85l-1.06 250.4a21.77 21.77 0 01-21.86 21.68z" fill="#455a64"/><path d="M320 92h-19.36a4.81 4.81 0 00-4.72 4.9v3.51a4.8 4.8 0 01-4.72 4.89l-37.74-.17a4.82 4.82 0 01-4.69-4.94v-3.51a4.82 4.82 0 00-4.68-4.94h-6.81l-16.95-.08A15.24 15.24 0 00205 106.75l-1 244.42a15.23 15.23 0 0015.16 15.3l99.68.46a15.24 15.24 0 0015.31-15.17l1-244.42A15.25 15.25 0 00320 92z" fill="#fff"/><path d="M306.59 334.32l-74.12-.32c-.77 0-1.39-.84-1.38-1.86l.08-19.39c0-1 .63-1.86 1.4-1.86l74.12.34a1.68 1.68 0 011.38 1.87l-.07 19.37c0 1.03-.64 1.86-1.41 1.85z" fill="#a927f9"/><text transform="matrix(.96 0 0 1 252.59 324.95)" font-size="8.299" fill="#e8e8e3" font-family="Montserrat-Regular,Montserrat">SING UP</text><path fill="#a927f9" d="M221.534 163.733l25.72.117-.021 4.72-25.72-.117z"/><path opacity=".1" d="M221.534 163.733l25.72.117-.021 4.72-25.72-.117z"/><path d="M322.65 192.83a2.3 2.3 0 00.59-.14 1.58 1.58 0 001-1.35v-13.28a1.94 1.94 0 00-.28-1.31 1.5 1.5 0 00-1.19-.61h-16.01l-83.64-.31a1.33 1.33 0 00-1.1.55 1.91 1.91 0 00-.26 1.31v12a7.89 7.89 0 000 1.4 1.35 1.35 0 00.78.9 1.56 1.56 0 00.62.11h5.09l22.21.12 37.6.23 25.35.2 6.89.08h2.4-34.64l-37.6-.12-22.21-.09h-5.09a2 2 0 01-.82-.14 1.88 1.88 0 01-1.08-1.25 2.83 2.83 0 01-.06-.8v-12.74a5.6 5.6 0 010-.8 1.7 1.7 0 01.33-.81 1.84 1.84 0 011.52-.77l83.64.46 14.45.1h1.56a1.71 1.71 0 011.4.73 2.13 2.13 0 01.32 1.47v6.39c0 3-.07 5.3-.09 6.9a1.62 1.62 0 01-1.05 1.39 1.2 1.2 0 01-.63.18z" fill="#e0e0e0"/><path fill="#a927f9" d="M229.26 180.85h47.04v4.41h-47.04z"/><path fill="#fff" opacity=".2" d="M229.26 180.85h47.04v4.41h-47.04z"/><path fill="#a927f9" d="M221.359 206.792l25.72.117-.022 4.72-25.72-.117z"/><path opacity=".1" d="M221.359 206.792l25.72.117-.022 4.72-25.72-.117z"/><path d="M322 235.89a5.17 5.17 0 00.6-.11 2.05 2.05 0 001.26-1.14 2.8 2.8 0 00.18-1.27v-11.93a2.15 2.15 0 00-.29-1.32 1.94 1.94 0 00-1.09-.85 6.13 6.13 0 00-1.51-.08h-14.39l-83.35-.31a1.85 1.85 0 00-1.83 1.61v12a5.74 5.74 0 00.06 1.4 1.9 1.9 0 00.73 1 2.08 2.08 0 001.24.32h4.28l22.13.11 37.47.23 25.26.2 6.87.08h2.39-34.52l-37.49-.04-22.13-.08h-4.35a2.51 2.51 0 01-1.53-.41 2.4 2.4 0 01-.94-1.31 6.3 6.3 0 01-.08-1.54v-12a2.37 2.37 0 012.35-2.07l83.35.46 14.39.11a6.19 6.19 0 011.6.11 2.21 2.21 0 011.23 1 2.41 2.41 0 01.32 1.46v11.98a2.79 2.79 0 01-.21 1.31 2.12 2.12 0 01-1.35 1.14 1.88 1.88 0 01-.65-.06z" fill="#e0e0e0"/><path fill="#a927f9" d="M221.165 251.72l25.72.118-.022 4.72-25.72-.117z"/><path opacity=".1" d="M221.165 251.72l25.72.118-.022 4.72-25.72-.117z"/><path d="M321.8 280.8a4.78 4.78 0 00.6-.11 2.06 2.06 0 001.26-1.13 2.82 2.82 0 00.18-1.27v-11.94a2.15 2.15 0 00-.29-1.32 2 2 0 00-1.09-.84 6.11 6.11 0 00-1.51-.09h-14.39l-83.35-.31a1.85 1.85 0 00-1.83 1.61v12a5.66 5.66 0 00.06 1.39 1.83 1.83 0 00.73 1 2 2 0 001.24.32h4.35l22.13.12 37.47.23 25.26.2 6.87.08h1.79-33.92l-37.47-.11-22.13-.09h-4.35a2.45 2.45 0 01-1.53-.41 2.4 2.4 0 01-.94-1.31 6.3 6.3 0 01-.08-1.54v-12.05a2.36 2.36 0 012.34-2.07l83.35.46 14.39.11a6.19 6.19 0 011.6.11 2.21 2.21 0 011.23 1 2.41 2.41 0 01.32 1.46v11.98a2.74 2.74 0 01-.21 1.31 2.12 2.12 0 01-1.35 1.14 1.58 1.58 0 01-.73.07z" fill="#e0e0e0"/><path fill="#a927f9" d="M228.256 224.943l47.04.214-.02 4.41-47.04-.214z"/><path fill="#fff" opacity=".2" d="M228.256 224.943l47.04.214-.02 4.41-47.04-.214z"/><path d="M232.51 272.64a2.06 2.06 0 11-2-2.21 2.12 2.12 0 012 2.21zm6.37.03a2.06 2.06 0 11-4.11 0 2.06 2.06 0 114.11 0zm6.38.03a2.06 2.06 0 11-2-2.21 2.13 2.13 0 012 2.21zm6.37.03a2.06 2.06 0 11-2-2.21 2.13 2.13 0 012 2.21zm6.37.02a2.06 2.06 0 11-2-2.2 2.13 2.13 0 012 2.2zm6.38.03a2.06 2.06 0 11-2.05-2.2 2.13 2.13 0 012.05 2.2zm6.37.03a2.06 2.06 0 11-4.11 0 2.06 2.06 0 114.11 0zm6.37.03a2.06 2.06 0 11-2.05-2.2 2.13 2.13 0 012.05 2.2zm6.37.03a2.06 2.06 0 11-2-2.2 2.13 2.13 0 012 2.2z" fill="#a927f9"/><path d="M232.51 272.64a2.06 2.06 0 11-2-2.21 2.12 2.12 0 012 2.21zm6.37.03a2.06 2.06 0 11-4.11 0 2.06 2.06 0 114.11 0zm6.38.03a2.06 2.06 0 11-2-2.21 2.13 2.13 0 012 2.21zm6.37.03a2.06 2.06 0 11-2-2.21 2.13 2.13 0 012 2.21zm6.37.02a2.06 2.06 0 11-2-2.2 2.13 2.13 0 012 2.2zm6.38.03a2.06 2.06 0 11-2.05-2.2 2.13 2.13 0 012.05 2.2zm6.37.03a2.06 2.06 0 11-4.11 0 2.06 2.06 0 114.11 0zm6.37.03a2.06 2.06 0 11-2.05-2.2 2.13 2.13 0 012.05 2.2zm6.37.03a2.06 2.06 0 11-2-2.2 2.13 2.13 0 012 2.2z" opacity=".2" fill="#fff"/><path d="M274.44 128.51a3.87 3.87 0 002.31-3.59 3.64 3.64 0 10-7.27 0 3.88 3.88 0 002.32 3.63c-5.6.84-5.35 6.92-5.35 6.92l13.24.06s.31-6.19-5.25-7.02z" fill="#a927f9"/><path d="M274.44 128.51a3.87 3.87 0 002.31-3.59 3.64 3.64 0 10-7.27 0 3.88 3.88 0 002.32 3.63c-5.6.84-5.35 6.92-5.35 6.92l13.24.06s.31-6.19-5.25-7.02z" opacity=".1"/><path fill="#a927f9" d="M248.765 139.237l47.19.214-.026 5.64-47.19-.214z"/><path fill="#fff" opacity=".2" d="M248.765 139.237l47.19.214-.026 5.64-47.19-.214z"/><g fill="#a927f9"><path d="M122.47 168.68H122l-1.36.1a15.43 15.43 0 00-2.19.29 13.53 13.53 0 00-1.39.27l-1.55.43a25.47 25.47 0 00-7.37 3.65 25.94 25.94 0 00-7.26 8.08 27.08 27.08 0 00-2.54 5.81 27.94 27.94 0 00-1.11 6.78 27.48 27.48 0 00.06 3.62c0 .61.17 1.22.25 1.84a11.82 11.82 0 00.35 1.85 26.39 26.39 0 0015 18.33 23.76 23.76 0 008.59 1.93 23.19 23.19 0 009-1.29l.88-.33h.12l.1.06 12.61 6.4-.37.32c-1.35-4.18-2.65-8.23-3.91-12.12v-.15l.11-.11a27 27 0 006.62-11 27.7 27.7 0 001-11.72 27.38 27.38 0 00-3.31-9.94 27 27 0 00-5.7-7 27.85 27.85 0 00-6.19-3.94 26.94 26.94 0 00-5.24-1.65l-2-.33-1.45-.11-.88-.06h-.3a1.36 1.36 0 01.3 0h.89l1.45.06 2 .29a26.5 26.5 0 015.31 1.59 27.79 27.79 0 016.3 3.93 27.07 27.07 0 015.82 7 27.45 27.45 0 013.41 10.07 28 28 0 01-.93 11.92 27.36 27.36 0 01-6.72 11.23l.06-.26c1.26 3.89 2.57 7.94 3.93 12.11l.19.61-.57-.29-12.61-6.39h.22l-.9.33a23.86 23.86 0 01-9.17 1.32 24.3 24.3 0 01-8.77-2A26.31 26.31 0 01100.25 209a26.7 26.7 0 01-2.83-7.4 15.32 15.32 0 01-.35-1.89c-.08-.63-.21-1.25-.24-1.87a29.55 29.55 0 011.11-10.56 26.89 26.89 0 012.61-5.88 26.17 26.17 0 017.41-8.13 25.28 25.28 0 017.49-3.62l1.57-.4a13.89 13.89 0 011.4-.25 14.85 14.85 0 012.21-.24l1.37-.05a3.36 3.36 0 01.47-.03z"/><path d="M128.17 192h-1.85l-4-5.62v-3.69s-2.86-.18-2.52 4.65 0 3.6 0 3.6-6.07 0-6.57.55-.53 6.41-.6 9.68a3.54 3.54 0 002.51 3.56 2.48 2.48 0 00.65.09c1.52 0 9.25-1.23 9.25-1.23h3.19zm5.29-.99l-1.14 12.64h-3.16v-12.38l4.3-.26z"/></g><path d="M171.15 448.34v-8.55l-15.33-.11-.13 12.93.95.07c4.23.27 21.52.67 24.36-.21 3.16-.98-9.85-4.13-9.85-4.13z" fill="#a927f9"/><path d="M181.36 451.67c0 .14-5.74.26-12.81.26s-12.81-.12-12.81-.26 5.74-.26 12.81-.26 12.81.12 12.81.26zm-9.94-1.58c-.13-.07 0-.52.31-1s.73-.68.83-.58-.11.48-.41.89-.6.76-.73.69zm.98.56c-.14 0-.07-.56.23-1.09s.7-.85.81-.77-.07.53-.35 1-.56.91-.69.86z" fill="#263238"/><path d="M160.36 451.63c-.06 0-.29-.18-.62-.56a9.91 9.91 0 00-1.34-1.34 3.53 3.53 0 00-1.66-.73c-.47-.06-.77 0-.8-.06s.26-.27.81-.31a3.09 3.09 0 012 .68 5.64 5.64 0 011.32 1.55c.23.44.35.73.29.77zm11.11-3.15c.07.12-.19.42-.63.58s-.83.1-.85 0 .29-.31.67-.45.73-.25.81-.13zm-.24-.83c0 .15-.4.27-.92.28s-.93-.11-.92-.25.42-.27.92-.28.9.11.92.25z" fill="#263238"/><path d="M208.9 448.34v-8.55l-15.33-.11-.13 12.8.95.07c4.23.27 21.53.8 24.36-.08 3.16-.98-9.85-4.13-9.85-4.13z" fill="#a927f9"/><path d="M219.11 451.69c0 .14-5.73.26-12.81.26s-12.8-.12-12.8-.26 5.73-.26 12.8-.26 12.81.12 12.81.26zm-9.94-1.6c-.12-.07 0-.52.31-1s.73-.68.83-.58-.11.48-.41.89-.6.76-.73.69zm.98.56c-.13 0-.07-.56.24-1.09s.7-.85.81-.77-.08.53-.36 1-.55.91-.69.86z" fill="#263238"/><path d="M198.11 451.63c-.06 0-.28-.18-.62-.56a9.91 9.91 0 00-1.34-1.34 3.53 3.53 0 00-1.66-.73c-.46-.06-.77 0-.8-.06s.26-.27.81-.31a3.09 3.09 0 012 .68 5.47 5.47 0 011.32 1.55c.23.44.35.73.29.77zm11.11-3.15c.07.12-.19.42-.63.58s-.83.1-.85 0 .29-.31.67-.45.73-.25.81-.13zm-.22-.83c0 .15-.4.27-.92.28s-.92-.11-.91-.25.41-.27.91-.28.92.11.92.25z" fill="#263238"/><path d="M265.38 194.44c-.4-.41-1.39-.21-1.39-.21a5.12 5.12 0 000-1.74c-.18-.56-1.44-.45-1.44-.45a5.81 5.81 0 010-1.42.51.51 0 00-.29-.51 4.62 4.62 0 00-1.88-.34c-.77-.55 2.35-4.92 3.51-6.32s.95-2.49-.08-2.49c-.71 0-4.35 4.2-5.47 5.61s-4.09 5.33-4.19 2.2-1.36-5.49-2.15-5.89-1.63.54-1.2 1.41a11.19 11.19 0 01.7 3.08 7.36 7.36 0 01-.11 2.52 30.22 30.22 0 01-1.35 4.52h-.08s-21.82 20.93-23.4 22.42c-1.41 1.34-29.77-1.59-35.46-2.19a38.09 38.09 0 00-5.84-.4c-2.47.11-2.91.46-5.37.49a121.62 121.62 0 00-18.54 1.63 15.37 15.37 0 00-12.06 10.46c-5.73 17.9-18.71 60.27-21 84.07a101 101 0 00-4.68 9.67c-1.61 4.38-1.22 4.53-.68 4.63 1.46.27 3.12-7.59 3.74-5.69s-3.15 9.37-1.62 9.59c2 .28 3.59-8 3.78-8.66s1.18-.45 1 .17c-.29.88-3.1 10.21-1.14 10.51 1.08.16 1.2-1.81 1.2-1.81s2-8.93 2.91-8.75-.06 5.45-.52 7.21.18 2.65 1.12 2.22c.64-.3 2.17-5.65 2.59-7.39s1.47-6.56 2.88-3.77 3.55 4.41 4.43 4.45a1 1 0 00.49-1.79 11.33 11.33 0 01-1.93-2.5 7.37 7.37 0 01-1-2.34 25.37 25.37 0 01-.7-5.06l-.16-1c2.24-11.09 8.69-43.64 18-64.43l3.82 7.86 1.66 5.82-10.18 25.13 43.42-.57-6.48-24.94 7.87-26c8.51.19 30.36.51 34-1.14 4.58-2 28.27-31.92 28.27-31.92a54.72 54.72 0 004.43-3.84s1.44-1.21.57-2.11z" fill="#ffbe9d"/><path d="M151.39 266.39c1.26-4.3 7.73-25.56 7.73-25.56s3.18 17.33 2.34 19.42a37 37 0 01-2.73 5.16c-7.34 11.17-6.38 16.76-6.38 16.76l44.35-1.35c.1-6.2-3.57-20.62-4.33-22.92s1.77-9.83 1.77-9.83 5-5.09 4.82-7.71a42.38 42.38 0 00-.87-7l27 1-.85-18.3-38.78-3.88c-1.35 3.81-13.56 1.94-13.56 1.94-13.18.44-14 2.86-19.48 7.12s-14.55 40.82-14.55 40.82z" fill="#a927f9"/><path d="M177.61 262.06a9.33 9.33 0 01-2.33.12c-1.45 0-3.44-.1-5.63-.32s-4.17-.53-5.58-.81a9.62 9.62 0 01-2.27-.58 12.5 12.5 0 012.33.22c1.42.18 3.39.43 5.57.65s4.16.37 5.59.47a12.34 12.34 0 012.32.25zm3.04-3.77a10.25 10.25 0 01-2.42.83 44.46 44.46 0 01-12.23 1.45 10.09 10.09 0 01-2.54-.24 17.09 17.09 0 012.54-.13c1.57-.05 3.73-.16 6.11-.44s4.5-.68 6-1a16.58 16.58 0 012.54-.47zm14.92-16.82a10.41 10.41 0 01-.31 2.26c-.26 1.39-.66 3.29-1.17 5.37s-1 4-1.44 5.3a10 10 0 01-.78 2.15 10.18 10.18 0 01.42-2.24c.38-1.56.81-3.36 1.29-5.33s.94-3.77 1.32-5.33a9.54 9.54 0 01.67-2.18zm-43.71 22.37a46.48 46.48 0 01-6.83-1.59 47.46 47.46 0 01-6.7-2.1 48.09 48.09 0 016.83 1.59 46.93 46.93 0 016.7 2.1zm46.71-30.7a3.36 3.36 0 01-1.14 0 11.85 11.85 0 01-3.05-.73 12.53 12.53 0 01-7.24-7.11 12.92 12.92 0 01-.89-5.63 8.75 8.75 0 011.37-4.46 4.63 4.63 0 012.53-1.87 3.06 3.06 0 01.85-.11h.3s-.42 0-1.09.27a4.55 4.55 0 00-2.29 1.87c-1.36 2.14-1.74 6.05-.29 9.7a12.22 12.22 0 003.09 4.52 13.13 13.13 0 003.79 2.44 19.26 19.26 0 004.06 1.11zm23.31.86a83.32 83.32 0 01-.24-9.22 82.49 82.49 0 01.28-9.21 83.06 83.06 0 01.24 9.21 80 80 0 01-.28 9.22z" fill="#263238"/><path d="M185.2 213.3c.11-2.23.34-4.75.34-4.75s5.52-.61 5.85-6.31 0-18.85 0-18.85l-10-5.12-11.1 8.73 1.71 28.5 10.18.65a2.94 2.94 0 003.02-2.85z" fill="#ffbe9d"/><path d="M186.19 197.73s0 .11-.09.24a.74.74 0 01-.63.28c-.64 0-1.26-.74-1.48-1.6a2.61 2.61 0 010-1.27 1.1 1.1 0 01.6-.86.55.55 0 01.42 0 .51.51 0 01.23.23c.07.17 0 .28 0 .27s0-.1-.1-.2a.36.36 0 00-.47-.1.85.85 0 00-.41.71 2.56 2.56 0 000 1.13c.2.78.74 1.41 1.22 1.47a.69.69 0 00.53-.15c.12-.08.16-.16.18-.15z" fill="#eb996e"/><path d="M194.82 180.31c-.77-2.62-3.56-3.92-6.1-4.64-3.87-1.1-8.05-1.58-11.83-.19s-8.32 3.83-8.32 8c-2.23-.18-3.51 1.77-4.39 4.19a15.7 15.7 0 00-1 4.6c-.28 5.46-1.81 13-5.35 17-2 2.23-4.77 3.77-5.91 6.55-1 2.41-.48 5.27-1.41 7.71-.83 2.15-2.66 3.68-4 5.55a14.88 14.88 0 00-.95 14.39 18.22 18.22 0 0010.89 9.4 25.47 25.47 0 0014.35.14 24 24 0 009.62-4.77A16.06 16.06 0 00186 239c.71-4.08-.43-8.23-1.28-12.29-2.66-12.83-1.9-13.5 1.46-25.41.08-.21.12-.43.18-.64s.09-.31.13-.47a7.54 7.54 0 00.15-1.43 2.75 2.75 0 01-2.89-.62 3 3 0 01-.68-3 4.36 4.36 0 012.58-2.43c1.11-.46 2.3-.7 3.39-1.21 2.31-1.1 3.91-3.38 5-5.77a7.92 7.92 0 00.78-5.42z" fill="#263238"/><path d="M186.59 198a4.89 4.89 0 01.52 1c.3.63.7 1.52 1.14 2.55l.08.19h-.21l-1 .09c-.69 0-1.27.13-1.95.12a.36.36 0 01-.26-.23.45.45 0 010-.28 4 4 0 01.09-.4l.18-.71a6.77 6.77 0 01.42-1.38 6.75 6.75 0 01-.21 1.43l-.14.71c-.05.24-.14.61 0 .58.5 0 1.21-.11 1.87-.15l1-.09-.13.22c-.43-1-.79-1.94-1-2.59a3.9 3.9 0 01-.4-1.06z" fill="#a927f9"/><path d="M152.35 282.17l44.35-1.35 19.3 75.34-3.55 86.42H189l2.87-84.58-17.15-52.45 2.64 140.38-23.7.35-2.49-131.95c-.11-3.67-1.31-11.94-.86-15.58z" fill="#263238"/><path d="M180.62 306.62a8.88 8.88 0 01-2.17-.13c-1.34-.16-3.17-.44-5.18-.84s-3.81-.86-5.11-1.23a8.25 8.25 0 01-2-.72c0-.15 3.26.63 7.26 1.44s7.22 1.33 7.2 1.48zm31.59 131.22c0 .14-5.31.26-11.86.26s-11.87-.12-11.87-.26 5.31-.26 11.87-.26 11.86.11 11.86.26zm-35.06 4.44c0 .15-5.16.26-11.52.26s-11.51-.11-11.51-.26 5.16-.26 11.51-.26 11.52.12 11.52.26z" fill="#455a64"/><path d="M174.09 441.92c-.14 0-.76-30.67-1.39-68.5s-1-68.52-.87-68.52.77 30.66 1.39 68.51 1.02 68.51.87 68.51zm34.97-4.08a2.56 2.56 0 010-.41v-1.2c0-1.08.08-2.63.14-4.6.14-4 .34-9.81.59-16.93.54-14.32 1.3-34.06 2.13-55.85v-.59.07c-5.25-21-10-40.06-13.45-53.85l-4-16.31c-.46-1.91-.81-3.4-1.06-4.44-.12-.49-.2-.87-.27-1.16a1.73 1.73 0 01-.07-.4 2.21 2.21 0 01.12.39c.08.28.18.66.32 1.14.27 1 .66 2.52 1.16 4.42 1 3.86 2.41 9.42 4.17 16.27 3.48 13.78 8.28 32.79 13.6 53.82v.66c-.89 21.79-1.7 41.52-2.29 55.84-.31 7.13-.57 12.9-.75 16.92-.1 2-.18 3.52-.23 4.6 0 .51-.06.91-.07 1.2a1.91 1.91 0 01-.04.41z" fill="#455a64"/><path d="M201.41 356.5a26.79 26.79 0 01-5.18 1.15c-2.16.37-4 .63-4.83.67v-.2c.27.08.41.13.41.17s-.17 0-.45 0h-.6l.6-.18c.78-.23 2.62-.61 4.78-1a27 27 0 015.27-.61zm-.41 2.87a25.8 25.8 0 01-4.67-.21 26.38 26.38 0 01-4.65-.51 29.61 29.61 0 019.32.72z" fill="#455a64"/><path d="M152.16 283.76a6.08 6.08 0 004.38 2.33 19.73 19.73 0 005.37-.1c11.45-1.27 23.58-2.44 34.79-5.17-14.51.81-29.84.54-44.35 1.35l-.15 1.24m14.91 20.8l8.18 31.74-.57-30.4-7.61-1.34z" opacity=".2"/></svg>